<svg xmlns="http://www.w3.org/2000/svg" width="840" height="470" viewBox="0 0 840 470" font-family="ui-monospace,SFMono-Regular,Menlo,Consolas,monospace">
<style>
@keyframes in{from{opacity:0;transform:translateY(10px)}to{opacity:1;transform:translateY(0)}}
@keyframes pulse{0%,100%{opacity:.65}50%{opacity:1}}
.t{animation:in .6s ease-out both}
.p{animation:pulse 2s ease-in-out infinite}
</style>
<defs><linearGradient id="bg" x1="0" y1="0" x2="0" y2="1">
<stop offset="0" stop-color="#111722"/><stop offset="1" stop-color="#0d1117"/>
</linearGradient></defs>
<rect width="840" height="470" rx="12" fill="url(#bg)"/>
<rect x=".5" y=".5" width="839" height="469" rx="12" fill="none" stroke="#30363d"/>
<line x1="0" y1="30" x2="840" y2="30" stroke="#30363d"/>
<circle cx="20" cy="15" r="5" fill="#ff5f56"/><circle cx="36" cy="15" r="5" fill="#ffbd2e"/><circle cx="52" cy="15" r="5" fill="#27c93f"/>
<text x="420" y="19" text-anchor="middle" fill="#7d8590" font-size="12">sairaja@github: ~$ ./projects.sh</text>
<g class="t"><text x="28" y="68" fill="#e6edf3" font-size="21" font-weight="700">$ ./projects --featured</text><rect x="24" y="87" width="792" height="70" rx="9" fill="#161b22" stroke="#30363d"/><text x="46" y="115" fill="#39d353" font-size="16">$ open</text><text x="145" y="115" fill="#79c0ff" font-size="17" font-weight="700">F1 COMMAND CENTER</text><text x="145" y="140" fill="#7d8590" font-size="13">Telemetry • WebSockets • data visualization</text><rect x="24" y="171" width="792" height="70" rx="9" fill="#161b22" stroke="#30363d"/><text x="46" y="199" fill="#39d353" font-size="16">$ open</text><text x="145" y="199" fill="#79c0ff" font-size="17" font-weight="700">CRICKET ANALYTICS</text><text x="145" y="224" fill="#7d8590" font-size="13">Live data • analytics • dashboard</text><rect x="24" y="255" width="792" height="70" rx="9" fill="#161b22" stroke="#30363d"/><text x="46" y="283" fill="#39d353" font-size="16">$ open</text><text x="145" y="283" fill="#79c0ff" font-size="17" font-weight="700">SMART CITY</text><text x="145" y="308" fill="#7d8590" font-size="13">React • Spring Boot • MySQL</text><rect x="24" y="339" width="792" height="70" rx="9" fill="#161b22" stroke="#30363d"/><text x="46" y="367" fill="#39d353" font-size="16">$ open</text><text x="145" y="367" fill="#79c0ff" font-size="17" font-weight="700">CAMPUS SERVICE</text><text x="145" y="392" fill="#7d8590" font-size="13">AWS Amplify • full-stack • cloud</text></g>
</svg>