<svg xmlns="http://www.w3.org/2000/svg" width="840" height="500" viewBox="0 0 840 500" font-family="ui-monospace,SFMono-Regular,Menlo,Consolas,monospace">
<style>
@keyframes in{from{opacity:0;transform:translateY(10px)}to{opacity:1;transform:translateY(0)}}
@keyframes pulse{0%,100%{opacity:.65}50%{opacity:1}}
.t{animation:in .6s ease-out both}
.p{animation:pulse 2s ease-in-out infinite}
</style>
<defs><linearGradient id="bg" x1="0" y1="0" x2="0" y2="1">
<stop offset="0" stop-color="#111722"/><stop offset="1" stop-color="#0d1117"/>
</linearGradient></defs>
<rect width="840" height="500" rx="12" fill="url(#bg)"/>
<rect x=".5" y=".5" width="839" height="499" rx="12" fill="none" stroke="#30363d"/>
<line x1="0" y1="30" x2="840" y2="30" stroke="#30363d"/>
<circle cx="20" cy="15" r="5" fill="#ff5f56"/><circle cx="36" cy="15" r="5" fill="#ffbd2e"/><circle cx="52" cy="15" r="5" fill="#27c93f"/>
<text x="420" y="19" text-anchor="middle" fill="#7d8590" font-size="12">sairaja@github: ~$ ./tech-stack.sh</text>
<g class="t"><text x="28" y="68" fill="#e6edf3" font-size="21" font-weight="700">$ technology stack</text><text x="28" y="94" fill="#7d8590" font-size="13">languages detected from your GitHub repositories</text><text x="28" y="135" fill="#7d8590" font-size="16">JavaScript</text><rect x="170" y="121" width="500" height="12" rx="6" fill="#30363d"/><rect x="170" y="121" width="256.7" height="12" rx="6" fill="#79c0ff"/><text x="690" y="135" fill="#e6edf3" font-size="15">51.3%</text><text x="28" y="175" fill="#7d8590" font-size="16">TypeScript</text><rect x="170" y="161" width="500" height="12" rx="6" fill="#30363d"/><rect x="170" y="161" width="154.7" height="12" rx="6" fill="#3178c6"/><text x="690" y="175" fill="#e6edf3" font-size="15">30.9%</text><text x="28" y="215" fill="#7d8590" font-size="16">Java</text><rect x="170" y="201" width="500" height="12" rx="6" fill="#30363d"/><rect x="170" y="201" width="47.9" height="12" rx="6" fill="#f89820"/><text x="690" y="215" fill="#e6edf3" font-size="15">9.6%</text><text x="28" y="255" fill="#7d8590" font-size="16">CSS</text><rect x="170" y="241" width="500" height="12" rx="6" fill="#30363d"/><rect x="170" y="241" width="32.1" height="12" rx="6" fill="#bc8cff"/><text x="690" y="255" fill="#e6edf3" font-size="15">6.4%</text><text x="28" y="295" fill="#7d8590" font-size="16">HTML</text><rect x="170" y="281" width="500" height="12" rx="6" fill="#30363d"/><rect x="170" y="281" width="8.2" height="12" rx="6" fill="#e34c26"/><text x="690" y="295" fill="#e6edf3" font-size="15">1.6%</text><text x="28" y="335" fill="#7d8590" font-size="16">Shell</text><rect x="170" y="321" width="500" height="12" rx="6" fill="#30363d"/><rect x="170" y="321" width="3.0" height="12" rx="6" fill="#39d353"/><text x="690" y="335" fill="#e6edf3" font-size="15">0.1%</text><text x="28" y="390" fill="#7d8590" font-size="15">frameworks → React • Spring Boot • Node.js • REST APIs</text><text x="28" y="420" fill="#7d8590" font-size="15">cloud → AWS • Amplify • GitHub Actions</text><text x="28" y="450" fill="#7d8590" font-size="15">data → MySQL • MongoDB • PostgreSQL</text></g>
</svg>